<?xml version="1.0" standalone="no"?><svg xmlns="http://www.w3.org/2000/svg" viewBox="0 0 1440 320"><path fill="#000b76" fill-opacity="1" d="M0,256L24,218.7C48,181,96,107,144,101.3C192,96,240,160,288,154.7C336,149,384,75,432,58.7C480,43,528,85,576,96C624,107,672,85,720,69.3C768,53,816,43,864,37.3C912,32,960,32,1008,37.3C1056,43,1104,53,1152,69.3C1200,85,1248,107,1296,112C1344,117,1392,107,1416,101.3L1440,96L1440,0L1416,0C1392,0,1344,0,1296,0C1248,0,1200,0,1152,0C1104,0,1056,0,1008,0C960,0,912,0,864,0C816,0,768,0,720,0C672,0,624,0,576,0C528,0,480,0,432,0C384,0,336,0,288,0C240,0,192,0,144,0C96,0,48,0,24,0L0,0Z"></path></svg>